<?xml version="1.0" encoding="UTF-8" standalone="no"?>
<!-- Created with Inkscape (http://www.inkscape.org/) -->

<svg
   xmlns:dc="http://purl.org/dc/elements/1.1/"
   xmlns:cc="http://creativecommons.org/ns#"
   xmlns:rdf="http://www.w3.org/1999/02/22-rdf-syntax-ns#"
   xmlns:svg="http://www.w3.org/2000/svg"
   xmlns="http://www.w3.org/2000/svg"
   xmlns:sodipodi="http://sodipodi.sourceforge.net/DTD/sodipodi-0.dtd"
   xmlns:inkscape="http://www.inkscape.org/namespaces/inkscape"
   width="524.40942"
   height="372.04724"
   id="svg3135"
   version="1.1"
   inkscape:version="0.48.4 r9939"
   sodipodi:docname="New document 4">
  <defs
     id="defs3137" />
  <sodipodi:namedview
     id="base"
     pagecolor="#ffffff"
     bordercolor="#666666"
     borderopacity="1.0"
     inkscape:pageopacity="0.0"
     inkscape:pageshadow="2"
     inkscape:zoom="1.4"
     inkscape:cx="408.84817"
     inkscape:cy="197.7535"
     inkscape:document-units="px"
     inkscape:current-layer="layer1"
     showgrid="false"
     inkscape:window-width="1372"
     inkscape:window-height="896"
     inkscape:window-x="75"
     inkscape:window-y="75"
     inkscape:window-maximized="0" />
  <metadata
     id="metadata3140">
    <rdf:RDF>
      <cc:Work
         rdf:about="">
        <dc:format>image/svg+xml</dc:format>
        <dc:type
           rdf:resource="http://purl.org/dc/dcmitype/StillImage" />
        <dc:title></dc:title>
      </cc:Work>
    </rdf:RDF>
  </metadata>
  <g
     inkscape:label="Layer 1"
     inkscape:groupmode="layer"
     id="layer1"
     transform="translate(0,-680.31489)">
    <g
       id="g3051"
       transform="matrix(2.1825794,0,0,-2.1825794,24.165711,845.2764)">
      <path
         inkscape:connector-curvature="0"
         d="m 0,0 1.244,0.718 0.356,-6.534 8.387,4.843 -7.04,-10.942 4.297,2.481 -6.982,-7.986 9.158,5.287 -9.803,-9.202 8.539,4.93 -7.17,-6.475 10.471,6.045 -6.005,-6.205 3.145,1.816 -3.983,-8.846 3.116,1.799 -4.124,-6.74 8.979,5.184 -8.54,-8.002 6.748,3.895 -8.462,-8.61 8.655,4.996 -5.925,-6.315 6.808,3.93 -9.703,-11.085 10.975,6.337 -8.802,-11.556 3.262,1.884 1.402,-2.457 1.51,0.871"
         style="fill:none;stroke:#ef3141;stroke-width:3;stroke-linecap:round;stroke-linejoin:round;stroke-miterlimit:4;stroke-opacity:1;stroke-dasharray:none"
         id="path3053" />
    </g>
    <g
       id="g3055"
       transform="matrix(2.1825794,0,0,-2.1825794,48.674768,834.23039)">
      <path
         inkscape:connector-curvature="0"
         d="M 0,0 1.235,0.713 3.438,-4.755 15.411,2.158 16.71,-3.969 24.589,0.58 20.883,-5.515 33.62,1.839 26.381,-5.883 38.497,1.113 31.8,-5.09 l 14.047,8.11 -4.833,-5.529 6.434,3.715 0.425,-5.285 1.497,0.864"
         style="fill:none;stroke:#ef3141;stroke-width:3;stroke-linecap:round;stroke-linejoin:round;stroke-miterlimit:4;stroke-opacity:1;stroke-dasharray:none"
         id="path3057" />
    </g>
    <g
       id="g3059"
       transform="matrix(2.1825794,0,0,-2.1825794,87.103236,733.38691)">
      <path
         inkscape:connector-curvature="0"
         d="m 0,0 2.035,1.175 -6.67,-10.59 12.52,7.228 -17.535,-17.001 8.432,4.868 -14.775,-12.485 13.295,7.676 -17.217,-13.483 12.677,7.32 -13.469,-10.113 14.61,8.435 -12.677,-10.057 7.286,4.206 -4.424,-6.904 2.301,1.328"
         style="fill:none;stroke:#ef3141;stroke-width:3;stroke-linecap:round;stroke-linejoin:round;stroke-miterlimit:4;stroke-opacity:1;stroke-dasharray:none"
         id="path3061" />
    </g>
    <g
       id="g3063"
       transform="matrix(2.1825794,0,0,-2.1825794,206.75659,841.84823)">
      <path
         inkscape:connector-curvature="0"
         d="m 0,0 1.51,0.872 -1.031,-3.237 4.752,2.743 -8.066,-8.687 10.669,6.16 -4.384,-5.62 3.388,1.956 -9.542,-10.694 11.451,6.611 -10.458,-10.576 8.114,4.684 -3.865,-8.56 2.051,1.184 -4.617,-8.456 5.734,3.31 -9.128,-11.68 11.093,6.405 -5.926,-6.367 6.063,3.5 -6.314,-8.919 7.926,4.576 -8.772,-11.742 7.759,4.48 -6.463,-9.489 6.214,3.587 -4.004,-5.651 5.561,3.211"
         style="fill:none;stroke:#ef3141;stroke-width:3;stroke-linecap:round;stroke-linejoin:round;stroke-miterlimit:4;stroke-opacity:1;stroke-dasharray:none"
         id="path3065" />
    </g>
    <g
       id="g3067"
       transform="matrix(2.1825794,0,0,-2.1825794,231.26543,830.8022)">
      <path
         inkscape:connector-curvature="0"
         d="m 0,0 1.502,0.867 -1.023,-3.232 4.718,2.724 -6.311,-7.674 14.255,8.23 -2.613,-4.598 6.971,4.025 -4.136,-7.572 15.033,8.679 -6.169,-8.101 11.693,6.751 3.53,-4.29 5.627,3.248 1.877,-4.707 1.695,0.979"
         style="fill:none;stroke:#ef3141;stroke-width:3;stroke-linecap:round;stroke-linejoin:round;stroke-miterlimit:4;stroke-opacity:1;stroke-dasharray:none"
         id="path3069" />
    </g>
    <g
       id="g3071"
       transform="matrix(2.1825794,0,0,-2.1825794,269.6939,729.95895)">
      <path
         inkscape:connector-curvature="0"
         d="M 0,0 2.301,1.329 -1.965,-3.776 5.991,0.817 -9.007,-11.872 5.794,-3.327 -5.58,-12.982 1.941,-8.64 -16.53,-24.489 l 15.586,8.999 -18.792,-15.389 12.252,7.073 -13.858,-14.329 6.192,3.574 -3.51,-6.751 0.257,0.149"
         style="fill:none;stroke:#ef3141;stroke-width:3;stroke-linecap:round;stroke-linejoin:round;stroke-miterlimit:4;stroke-opacity:1;stroke-dasharray:none"
         id="path3073" />
    </g>
    <text
       style="font-size:26.1909523px"
       y="849.48975"
       x="171.5274"
       id="text3075">
      <tspan
         style="font-size:40.48095703px;font-variant:normal;font-weight:normal;font-stretch:normal;writing-mode:lr-tb;fill:#ef3141;fill-opacity:1;fill-rule:nonzero;stroke:none;font-family:Myriad Pro;-inkscape-font-specification:MyriadPro-Regular"
         x="171.5274"
         y="849.48975"
         id="tspan3077">+</tspan>
    </text>
    <g
       id="g3079"
       transform="matrix(2.1825794,0,0,-2.1825794,379.68933,841.84846)">
      <path
         inkscape:connector-curvature="0"
         d="m 0,0 1.51,0.872 -1.622,-7.81 4.66,2.691 -5.969,-5.84 9.217,5.322 L 2.79,-11.103 7.911,-8.147 2,-17.42 l 7.984,4.609 -10.112,-8.159 5.062,2.922 -5.659,-8.601 11.442,6.606 -7.62,-7.547 2.712,1.565 -5.941,-6.03 8.536,4.928 -9.673,-12.464 6.945,4.01 -4.525,-8.367 5.93,3.424 -8.132,-9.849 9.958,5.749 -5.823,-9.64 4.685,2.704 -3.684,-5.832 2.014,1.163"
         style="fill:none;stroke:#ef3141;stroke-width:3;stroke-linecap:round;stroke-linejoin:round;stroke-miterlimit:4;stroke-opacity:1;stroke-dasharray:none"
         id="path3081" />
    </g>
    <g
       id="g3083"
       transform="matrix(2.1825794,0,0,-2.1825794,404.19839,830.8022)">
      <path
         inkscape:connector-curvature="0"
         d="m 0,0 1.502,0.867 0.456,-6.61 8.245,4.761 -5.405,-5.514 12.802,7.391 -2.612,-4.956 8.703,5.025 0.671,-5.474 11.563,6.676 -9.667,-7.902 8.64,4.988 0.014,-5.327 14.656,8.462 -5.376,-6.251 0.48,0.277 0.348,-2.14 2.257,1.304"
         style="fill:none;stroke:#ef3141;stroke-width:3;stroke-linecap:round;stroke-linejoin:round;stroke-miterlimit:4;stroke-opacity:1;stroke-dasharray:none"
         id="path3085" />
    </g>
    <g
       id="g3087"
       transform="matrix(2.1825794,0,0,-2.1825794,442.58975,729.98036)">
      <path
         inkscape:connector-curvature="0"
         d="m 0,0 0.647,0.374 -7.1,-10.973 8.792,5.077 -12.315,-9.504 13.35,7.708 -12.329,-10.566 9.256,5.344 -15.467,-14.791 12.121,6.997 -16.397,-11.787 9.2,5.312 -14.731,-13.84 15.582,8.996 -8.136,-7.844 0.317,0.182"
         style="fill:none;stroke:#ef3141;stroke-width:3;stroke-linecap:round;stroke-linejoin:round;stroke-miterlimit:4;stroke-opacity:1;stroke-dasharray:none"
         id="path3089" />
    </g>
    <text
       style="font-size:26.1909523px"
       y="849.48975"
       x="344.46057"
       id="text3091">
      <tspan
         style="font-size:40.48095703px;font-variant:normal;font-weight:normal;font-stretch:normal;writing-mode:lr-tb;fill:#ef3141;fill-opacity:1;fill-rule:nonzero;stroke:none;font-family:Myriad Pro;-inkscape-font-specification:MyriadPro-Regular"
         x="344.46057"
         y="849.48975"
         id="tspan3093">+</tspan>
    </text>
  </g>
</svg>
