<?xml version="1.0" encoding="UTF-8" standalone="no"?>
<!-- Created with Inkscape (http://www.inkscape.org/) -->

<svg
   xmlns:dc="http://purl.org/dc/elements/1.1/"
   xmlns:cc="http://creativecommons.org/ns#"
   xmlns:rdf="http://www.w3.org/1999/02/22-rdf-syntax-ns#"
   xmlns:svg="http://www.w3.org/2000/svg"
   xmlns="http://www.w3.org/2000/svg"
   xmlns:sodipodi="http://sodipodi.sourceforge.net/DTD/sodipodi-0.dtd"
   xmlns:inkscape="http://www.inkscape.org/namespaces/inkscape"
   id="svg2"
   version="1.1"
   inkscape:version="0.48.4 r9939"
   width="552.5"
   height="340"
   xml:space="preserve"
   sodipodi:docname="overview.svg"><metadata
     id="metadata8"><rdf:RDF><cc:Work
         rdf:about=""><dc:format>image/svg+xml</dc:format><dc:type
           rdf:resource="http://purl.org/dc/dcmitype/StillImage" /><dc:title></dc:title></cc:Work></rdf:RDF></metadata><defs
     id="defs6"><clipPath
       clipPathUnits="userSpaceOnUse"
       id="clipPath18"><path
         d="m 9,0 4411,0 0,2720 L 9,2720 9,0 z"
         id="path20" /></clipPath></defs><sodipodi:namedview
     pagecolor="#ffffff"
     bordercolor="#666666"
     borderopacity="1"
     objecttolerance="10"
     gridtolerance="10"
     guidetolerance="10"
     inkscape:pageopacity="0"
     inkscape:pageshadow="2"
     inkscape:window-width="1680"
     inkscape:window-height="1030"
     id="namedview4"
     showgrid="false"
     inkscape:zoom="1.9632612"
     inkscape:cx="276.25"
     inkscape:cy="170"
     inkscape:window-x="-2"
     inkscape:window-y="-3"
     inkscape:window-maximized="1"
     inkscape:current-layer="g10" /><g
     id="g10"
     inkscape:groupmode="layer"
     inkscape:label="overview"
     transform="matrix(1.25,0,0,-1.25,0,340)"><g
       id="g12"
       transform="scale(0.1,0.1)"><g
         id="g14"><g
           id="g16"
           clip-path="url(#clipPath18)"><path
             d="m 2643.27,1681.96 -2222.493,0 c -41.82,0 -75.718,-33.9 -75.718,-75.71 l 0,-706.078 c 0,-41.82 33.898,-75.719 75.718,-75.719 l 2222.493,0 c 41.82,0 75.71,33.899 75.71,75.719 l 0,706.078 c 0,41.81 -33.89,75.71 -75.71,75.71 z"
             style="fill:none;stroke:#ff0000;stroke-opacity:1;stroke-width:11.3575;stroke-linecap:butt;stroke-linejoin:miter;stroke-miterlimit:10;stroke-dasharray:none"
             id="path22" /><g
             id="g24"
             transform="scale(10,10)"><text
               transform="matrix(1,0,0,-1,75.723,150.973)"
               id="text26"><tspan
                 style="fill:#ff0000;fill-opacity:1;fill-rule:nonzero;stroke:none;font-family:Nimbus Roman No9 L;font-variant:normal;font-size:13.6289;writing-mode:lr;-inkscape-font-specification:NimbusRomNo9L-Medi"
                 x="0 9.8400658 15.8912974 21.942529 28.756979 36.3346474 43.9123158 47.70115 51.4899842 59.0676526 69.28931397 76.10376397 84.04943993 92.10411983 98.91856983 102.70740403 109.52185403 117.09952243 123.91397243 135.26684613 139.05568033 145.87013033 149.65896453"
                 y="0"
                 sodipodi:role="line"
                 id="tspan28">DecouplingofPolynomials</tspan></text>
</g><path
             d="m 709.48,991.664 0,315.096 c 0,20.07 16.274,36.35 36.344,36.35 l 56.574,0 c 20.075,0 36.344,-16.28 36.344,-36.35 l 0,-315.096 c 0,-20.07 -16.269,-36.344 -36.344,-36.344 l -56.574,0 c -20.07,0 -36.344,16.274 -36.344,36.344 z"
             style="fill:#b2b2b2;fill-opacity:1;fill-rule:nonzero;stroke:none"
             id="path30" /><path
             d="m 709.48,991.664 0,315.096 c 0,20.07 16.274,36.35 36.344,36.35 l 56.574,0 c 20.075,0 36.344,-16.28 36.344,-36.35 l 0,-315.096 c 0,-20.07 -16.269,-36.344 -36.344,-36.344 l -56.574,0 c -20.07,0 -36.344,16.274 -36.344,36.344 z"
             style="fill:none;stroke:#000000;stroke-opacity:1;stroke-width:3.63437;stroke-linecap:butt;stroke-linejoin:miter;stroke-miterlimit:10;stroke-dasharray:none"
             id="path32" /><path
             d="m 838.742,1278.47 77.778,0"
             style="fill:none;stroke:#000000;stroke-opacity:1;stroke-width:3.63437;stroke-linecap:butt;stroke-linejoin:miter;stroke-miterlimit:10;stroke-dasharray:none"
             id="path34" /><path
             d="m 888.836,1290.9 29.273,-12.43 -29.273,-12.42"
             style="fill:#000000;fill-opacity:1;fill-rule:nonzero;stroke:none"
             id="path36" /><path
             d="m 888.836,1290.9 29.273,-12.43 -29.273,-12.42 0,24.85 z"
             style="fill:none;stroke:#000000;stroke-opacity:1;stroke-width:3.63437;stroke-linecap:butt;stroke-linejoin:miter;stroke-miterlimit:10;stroke-dasharray:none"
             id="path38" /><path
             d="m 838.742,1019.95 77.778,0"
             style="fill:none;stroke:#000000;stroke-opacity:1;stroke-width:3.63437;stroke-linecap:butt;stroke-linejoin:miter;stroke-miterlimit:10;stroke-dasharray:none"
             id="path40" /><path
             d="m 888.836,1032.38 29.273,-12.43 -29.273,-12.42"
             style="fill:#000000;fill-opacity:1;fill-rule:nonzero;stroke:none"
             id="path42" /><path
             d="m 888.836,1032.38 29.273,-12.43 -29.273,-12.42 0,24.85 z"
             style="fill:none;stroke:#000000;stroke-opacity:1;stroke-width:3.63437;stroke-linecap:butt;stroke-linejoin:miter;stroke-miterlimit:10;stroke-dasharray:none"
             id="path44" /><path
             d="m 632.836,1278.47 70.402,0"
             style="fill:none;stroke:#000000;stroke-opacity:1;stroke-width:3.63437;stroke-linecap:butt;stroke-linejoin:miter;stroke-miterlimit:10;stroke-dasharray:none"
             id="path46" /><path
             d="m 675.559,1290.9 29.269,-12.43 -29.269,-12.42"
             style="fill:#000000;fill-opacity:1;fill-rule:nonzero;stroke:none"
             id="path48" /><path
             d="m 675.559,1290.9 29.269,-12.43 -29.269,-12.42 0,24.85 z"
             style="fill:none;stroke:#000000;stroke-opacity:1;stroke-width:3.63437;stroke-linecap:butt;stroke-linejoin:miter;stroke-miterlimit:10;stroke-dasharray:none"
             id="path50" /><path
             d="m 632.836,1019.95 70.402,0"
             style="fill:none;stroke:#000000;stroke-opacity:1;stroke-width:3.63437;stroke-linecap:butt;stroke-linejoin:miter;stroke-miterlimit:10;stroke-dasharray:none"
             id="path52" /><path
             d="m 675.559,1032.38 29.269,-12.43 -29.269,-12.42"
             style="fill:#000000;fill-opacity:1;fill-rule:nonzero;stroke:none"
             id="path54" /><path
             d="m 675.559,1032.38 29.269,-12.43 -29.269,-12.42 0,24.85 z"
             style="fill:none;stroke:#000000;stroke-opacity:1;stroke-width:3.63437;stroke-linecap:butt;stroke-linejoin:miter;stroke-miterlimit:10;stroke-dasharray:none"
             id="path56" /><g
             id="g58"
             transform="scale(10,10)"><text
               transform="matrix(1,0,0,-1,114.783,114.973)"
               id="text60"><tspan
                 style="fill:#000000;fill-opacity:1;fill-rule:nonzero;stroke:none;font-family:CMSY10;font-variant:normal;font-weight:normal;font-size:11.3029;writing-mode:lr;-inkscape-font-specification:CMSY10"
                 x="0 6.90389044"
                 y="0"
                 sodipodi:role="line"
                 id="tspan62">−→</tspan></text>
</g><path
             d="m 1604.9,957.141 129.262,0 0,387.785 -129.262,0 0,-387.785 z"
             style="fill:none;stroke:#000000;stroke-opacity:1;stroke-width:3.63437;stroke-linecap:butt;stroke-linejoin:miter;stroke-miterlimit:10;stroke-dasharray:none"
             id="path64" /><path
             d="m 1554.1,1280.29 44.56,0"
             style="fill:none;stroke:#000000;stroke-opacity:1;stroke-width:3.63437;stroke-linecap:butt;stroke-linejoin:miter;stroke-miterlimit:10;stroke-dasharray:none"
             id="path66" /><path
             d="m 1570.97,1292.72 29.28,-12.43 -29.28,-12.42"
             style="fill:#000000;fill-opacity:1;fill-rule:nonzero;stroke:none"
             id="path68" /><path
             d="m 1570.97,1292.72 29.28,-12.43 -29.28,-12.42 0,24.85 z"
             style="fill:none;stroke:#000000;stroke-opacity:1;stroke-width:3.63437;stroke-linecap:butt;stroke-linejoin:miter;stroke-miterlimit:10;stroke-dasharray:none"
             id="path70" /><path
             d="m 1554.1,1021.77 44.56,0"
             style="fill:none;stroke:#000000;stroke-opacity:1;stroke-width:3.63437;stroke-linecap:butt;stroke-linejoin:miter;stroke-miterlimit:10;stroke-dasharray:none"
             id="path72" /><path
             d="m 1570.97,1034.2 29.28,-12.43 -29.28,-12.43"
             style="fill:#000000;fill-opacity:1;fill-rule:nonzero;stroke:none"
             id="path74" /><path
             d="m 1570.97,1034.2 29.28,-12.43 -29.28,-12.43 0,24.86 z"
             style="fill:none;stroke:#000000;stroke-opacity:1;stroke-width:3.63437;stroke-linecap:butt;stroke-linejoin:miter;stroke-miterlimit:10;stroke-dasharray:none"
             id="path76" /><path
             d="m 2033.89,1357.85 -82.42,0 c -20.08,0 -36.34,-16.27 -36.34,-36.34 l 0,-82.43 c 0,-20.07 16.26,-36.34 36.34,-36.34 l 82.42,0 c 20.08,0 36.35,16.27 36.35,36.34 l 0,82.43 c 0,20.07 -16.27,36.34 -36.35,36.34 z"
             style="fill:#b2b2b2;fill-opacity:1;fill-rule:nonzero;stroke:none"
             id="path78" /><path
             d="m 2033.89,1357.85 -82.42,0 c -20.08,0 -36.34,-16.27 -36.34,-36.34 l 0,-82.43 c 0,-20.07 16.26,-36.34 36.34,-36.34 l 82.42,0 c 20.08,0 36.35,16.27 36.35,36.34 l 0,82.43 c 0,20.07 -16.27,36.34 -36.35,36.34 z"
             style="fill:none;stroke:#000000;stroke-opacity:1;stroke-width:3.63437;stroke-linecap:butt;stroke-linejoin:miter;stroke-miterlimit:10;stroke-dasharray:none"
             id="path80" /><path
             d="m 1734.16,1280.29 172.91,0"
             style="fill:none;stroke:#000000;stroke-opacity:1;stroke-width:3.63437;stroke-linecap:butt;stroke-linejoin:miter;stroke-miterlimit:10;stroke-dasharray:none"
             id="path82" /><path
             d="m 1879.38,1292.72 29.28,-12.43 -29.28,-12.42"
             style="fill:#000000;fill-opacity:1;fill-rule:nonzero;stroke:none"
             id="path84" /><path
             d="m 1879.38,1292.72 29.28,-12.43 -29.28,-12.42 0,24.85 z"
             style="fill:none;stroke:#000000;stroke-opacity:1;stroke-width:3.63437;stroke-linecap:butt;stroke-linejoin:miter;stroke-miterlimit:10;stroke-dasharray:none"
             id="path86" /><path
             d="m 2033.89,1099.33 -82.42,0 c -20.08,0 -36.34,-16.28 -36.34,-36.35 l 0,-82.421 c 0,-20.075 16.26,-36.344 36.34,-36.344 l 82.42,0 c 20.08,0 36.35,16.269 36.35,36.344 l 0,82.421 c 0,20.07 -16.27,36.35 -36.35,36.35 z"
             style="fill:#b2b2b2;fill-opacity:1;fill-rule:nonzero;stroke:none"
             id="path88" /><path
             d="m 2033.89,1099.33 -82.42,0 c -20.08,0 -36.34,-16.28 -36.34,-36.35 l 0,-82.421 c 0,-20.075 16.26,-36.344 36.34,-36.344 l 82.42,0 c 20.08,0 36.35,16.269 36.35,36.344 l 0,82.421 c 0,20.07 -16.27,36.35 -36.35,36.35 z"
             style="fill:none;stroke:#000000;stroke-opacity:1;stroke-width:3.63437;stroke-linecap:butt;stroke-linejoin:miter;stroke-miterlimit:10;stroke-dasharray:none"
             id="path90" /><path
             d="m 1734.16,1021.77 172.91,0"
             style="fill:none;stroke:#000000;stroke-opacity:1;stroke-width:3.63437;stroke-linecap:butt;stroke-linejoin:miter;stroke-miterlimit:10;stroke-dasharray:none"
             id="path92" /><path
             d="m 1879.38,1034.2 29.28,-12.43 -29.28,-12.43"
             style="fill:#000000;fill-opacity:1;fill-rule:nonzero;stroke:none"
             id="path94" /><path
             d="m 1879.38,1034.2 29.28,-12.43 -29.28,-12.43 0,24.86 z"
             style="fill:none;stroke:#000000;stroke-opacity:1;stroke-width:3.63437;stroke-linecap:butt;stroke-linejoin:miter;stroke-miterlimit:10;stroke-dasharray:none"
             id="path96" /><path
             d="m 2251.2,957.141 129.262,0 0,387.785 -129.262,0 0,-387.785 z"
             style="fill:none;stroke:#000000;stroke-opacity:1;stroke-width:3.63437;stroke-linecap:butt;stroke-linejoin:miter;stroke-miterlimit:10;stroke-dasharray:none"
             id="path98" /><path
             d="m 2072.05,1280.29 172.91,0"
             style="fill:none;stroke:#000000;stroke-opacity:1;stroke-width:3.63437;stroke-linecap:butt;stroke-linejoin:miter;stroke-miterlimit:10;stroke-dasharray:none"
             id="path100" /><path
             d="m 2217.28,1292.72 29.27,-12.43 -29.27,-12.42"
             style="fill:#000000;fill-opacity:1;fill-rule:nonzero;stroke:none"
             id="path102" /><path
             d="m 2217.28,1292.72 29.27,-12.43 -29.27,-12.42 0,24.85 z"
             style="fill:none;stroke:#000000;stroke-opacity:1;stroke-width:3.63437;stroke-linecap:butt;stroke-linejoin:miter;stroke-miterlimit:10;stroke-dasharray:none"
             id="path104" /><path
             d="m 2072.05,1021.77 172.91,0"
             style="fill:none;stroke:#000000;stroke-opacity:1;stroke-width:3.63437;stroke-linecap:butt;stroke-linejoin:miter;stroke-miterlimit:10;stroke-dasharray:none"
             id="path106" /><path
             d="m 2217.28,1034.2 29.27,-12.43 -29.27,-12.43"
             style="fill:#000000;fill-opacity:1;fill-rule:nonzero;stroke:none"
             id="path108" /><path
             d="m 2217.28,1034.2 29.27,-12.43 -29.27,-12.43 0,24.86 z"
             style="fill:none;stroke:#000000;stroke-opacity:1;stroke-width:3.63437;stroke-linecap:butt;stroke-linejoin:miter;stroke-miterlimit:10;stroke-dasharray:none"
             id="path110" /><path
             d="m 2380.46,1280.29 44.56,0"
             style="fill:none;stroke:#000000;stroke-opacity:1;stroke-width:3.63437;stroke-linecap:butt;stroke-linejoin:miter;stroke-miterlimit:10;stroke-dasharray:none"
             id="path112" /><path
             d="m 2397.34,1292.72 29.27,-12.43 -29.27,-12.42"
             style="fill:#000000;fill-opacity:1;fill-rule:nonzero;stroke:none"
             id="path114" /><path
             d="m 2397.34,1292.72 29.27,-12.43 -29.27,-12.42 0,24.85 z"
             style="fill:none;stroke:#000000;stroke-opacity:1;stroke-width:3.63437;stroke-linecap:butt;stroke-linejoin:miter;stroke-miterlimit:10;stroke-dasharray:none"
             id="path116" /><path
             d="m 2380.46,1021.77 44.56,0"
             style="fill:none;stroke:#000000;stroke-opacity:1;stroke-width:3.63437;stroke-linecap:butt;stroke-linejoin:miter;stroke-miterlimit:10;stroke-dasharray:none"
             id="path118" /><path
             d="m 2397.34,1034.2 29.27,-12.43 -29.27,-12.43"
             style="fill:#000000;fill-opacity:1;fill-rule:nonzero;stroke:none"
             id="path120" /><path
             d="m 2397.34,1034.2 29.27,-12.43 -29.27,-12.43 0,24.86 z"
             style="fill:none;stroke:#000000;stroke-opacity:1;stroke-width:3.63437;stroke-linecap:butt;stroke-linejoin:miter;stroke-miterlimit:10;stroke-dasharray:none"
             id="path122" /><g
             id="g124"
             transform="scale(10,10)"><text
               transform="matrix(1,0,0,-1,39.3629,229.819)"
               id="text126"><tspan
                 style="fill:#000000;fill-opacity:1;fill-rule:nonzero;stroke:none;font-family:Nimbus Roman No9 L;font-variant:normal;font-size:11.3574;writing-mode:lr;-inkscape-font-specification:NimbusRomNo9L-Regu"
                 x="0 7.5753858 10.732743 16.411443 21.4541286 27.1328286 30.9148428 36.5935428 40.375557 43.5329142 48.5755998 54.2542998 57.411657 62.4543426"
                 y="0"
                 sodipodi:role="line"
                 id="tspan128">Block-oriented</tspan><tspan
                 style="fill:#000000;fill-opacity:1;fill-rule:nonzero;stroke:none;font-family:Nimbus Roman No9 L;font-variant:normal;font-size:11.3574;writing-mode:lr;-inkscape-font-specification:NimbusRomNo9L-Regu"
                 x="-13.1008 -8.6827714 -3.0040714 1.4139572 4.5713144 9.614 21.28931634 24.44667354 30.12537354 35.16805914 40.84675914 44.00411634 47.16147354 53.47618794 58.51887354 63.56155914 66.71891634 69.87627354 75.55497354"
                 y="15.0965"
                 sodipodi:role="line"
                 id="tspan130">systemidentifcation</tspan></text>
</g><path
             d="M 1180.04,1694.79 886.359,2062.2"
             style="fill:none;stroke:#000000;stroke-opacity:1;stroke-width:3.78575;stroke-linecap:butt;stroke-linejoin:miter;stroke-miterlimit:10;stroke-dasharray:none"
             id="path132" /><path
             d="m 1166.45,1747.5 15.37,-54.94 -50.19,27.1"
             style="fill:#000000;fill-opacity:1;fill-rule:nonzero;stroke:none"
             id="path134" /><path
             d="m 1166.45,1747.5 15.37,-54.94 -50.19,27.1 34.82,27.84 z"
             style="fill:none;stroke:#000000;stroke-opacity:1;stroke-width:3.80304;stroke-linecap:butt;stroke-linejoin:miter;stroke-miterlimit:10;stroke-dasharray:none"
             id="path136" /><g
             id="g138"
             transform="scale(10,10)"><text
               transform="matrix(1,0,0,-1,184.405,229.819)"
               id="text140"><tspan
                 style="fill:#000000;fill-opacity:1;fill-rule:nonzero;stroke:none;font-family:Nimbus Roman No9 L;font-variant:normal;font-size:11.3574;writing-mode:lr;-inkscape-font-specification:NimbusRomNo9L-Regu"
                 x="0 8.2000428 13.8787428 19.5574428 22.7148 25.8721572 31.5508572 36.5935428 41.6362284 48.25763803 52.67566663 55.83302383 60.87570943 64.03306663 71.9149773 76.3330059 82.0117059 87.0543915 92.0970771"
                 y="0"
                 sodipodi:role="line"
                 id="tspan142">Nonlinearstatespace</tspan><tspan
                 style="fill:#000000;fill-opacity:1;fill-rule:nonzero;stroke:none;font-family:Nimbus Roman No9 L;font-variant:normal;font-size:11.3574;writing-mode:lr;-inkscape-font-specification:NimbusRomNo9L-Regu"
                 x="1.40312 5.8211486 11.4998486 15.9178772 19.0752344 24.11792 35.79322498 38.95058218 44.62928218 49.67196778 55.35066778 58.50802498 61.66538218 67.98009658 73.02278218 78.06546778 81.22282498 84.38018218 90.05888218"
                 y="15.0965"
                 sodipodi:role="line"
                 id="tspan144">systemidentifcation</tspan></text>
</g><path
             d="m 1884.23,1694.79 293.45,367.41"
             style="fill:none;stroke:#000000;stroke-opacity:1;stroke-width:3.78575;stroke-linecap:butt;stroke-linejoin:miter;stroke-miterlimit:10;stroke-dasharray:none"
             id="path146" /><path
             d="m 1932.63,1719.67 -50.18,-27.11 15.35,54.92"
             style="fill:#000000;fill-opacity:1;fill-rule:nonzero;stroke:none"
             id="path148" /><path
             d="m 1932.63,1719.67 -50.18,-27.11 15.35,54.92 34.83,-27.81 z"
             style="fill:none;stroke:#000000;stroke-opacity:1;stroke-width:3.80192;stroke-linecap:butt;stroke-linejoin:miter;stroke-miterlimit:10;stroke-dasharray:none"
             id="path150" /><path
             d="m 2725.8,1253.21 119.04,0"
             style="fill:none;stroke:#000000;stroke-opacity:1;stroke-width:3.78575;stroke-linecap:butt;stroke-linejoin:miter;stroke-miterlimit:10;stroke-dasharray:none"
             id="path152" /><path
             d="M 2844.82,1253.22 3349.76,849.266"
             style="fill:none;stroke:#000000;stroke-opacity:1;stroke-width:3.78575;stroke-linecap:butt;stroke-linejoin:miter;stroke-miterlimit:10;stroke-dasharray:none"
             id="path154" /><g
             id="g156"
             transform="scale(10,10)"><text
               transform="matrix(1,0,0,-1,355.188,81.1336)"
               id="text158"><tspan
                 style="fill:#000000;fill-opacity:1;fill-rule:nonzero;stroke:none;font-family:Nimbus Roman No9 L;font-variant:normal;font-size:11.3574;writing-mode:lr;-inkscape-font-specification:NimbusRomNo9L-Regu"
                 x="0 6.9393714 10.0967286 15.7754286 20.8181142 25.8607998 29.642814 32.8001712 37.8428568 42.8855424 46.0428996 49.2002568 54.8789568"
                 y="0"
                 sodipodi:role="line"
                 id="tspan160">Linearization</tspan></text>
</g><path
             d="m 3349.75,849.266 154.71,0"
             style="fill:none;stroke:#000000;stroke-opacity:1;stroke-width:3.78575;stroke-linecap:butt;stroke-linejoin:miter;stroke-miterlimit:10;stroke-dasharray:none"
             id="path162" /><path
             d="m 3455.02,871.453 52.28,-22.187 -52.28,-22.188"
             style="fill:#000000;fill-opacity:1;fill-rule:nonzero;stroke:none"
             id="path164" /><path
             d="m 3455.02,871.453 52.28,-22.187 -52.28,-22.188 0,44.375 z"
             style="fill:none;stroke:#000000;stroke-opacity:1;stroke-width:3.78575;stroke-linecap:butt;stroke-linejoin:miter;stroke-miterlimit:10;stroke-dasharray:none"
             id="path166" /><path
             d="m 2844.82,1253.21 504.94,0"
             style="fill:none;stroke:#000000;stroke-opacity:1;stroke-width:3.78575;stroke-linecap:butt;stroke-linejoin:miter;stroke-miterlimit:10;stroke-dasharray:none"
             id="path168" /><g
             id="g170"
             transform="scale(10,10)"><text
               transform="matrix(1,0,0,-1,354.651,121.527)"
               id="text172"><tspan
                 style="fill:#000000;fill-opacity:1;fill-rule:nonzero;stroke:none;font-family:Nimbus Roman No9 L;font-variant:normal;font-size:11.3574;writing-mode:lr;-inkscape-font-specification:NimbusRomNo9L-Regu"
                 x="0 6.3147144 9.4720716 13.2540858 18.9327858 23.9754714 27.1328286 32.8115286 36.5935428 41.6362284 50.15413075 58.99018795 64.03287355 67.19023075 70.97224495 74.12960215"
                 y="0"
                 sodipodi:role="line"
                 id="tspan174">Structuredmatrix</tspan></text>
</g><path
             d="m 3349.74,1253.21 149.35,0"
             style="fill:none;stroke:#000000;stroke-opacity:1;stroke-width:3.78575;stroke-linecap:butt;stroke-linejoin:miter;stroke-miterlimit:10;stroke-dasharray:none"
             id="path176" /><path
             d="m 3449.66,1275.39 52.27,-22.18 -52.27,-22.19"
             style="fill:#000000;fill-opacity:1;fill-rule:nonzero;stroke:none"
             id="path178" /><path
             d="m 3449.66,1275.39 52.27,-22.18 -52.27,-22.19 0,44.37 z"
             style="fill:none;stroke:#000000;stroke-opacity:1;stroke-width:3.78575;stroke-linecap:butt;stroke-linejoin:miter;stroke-miterlimit:10;stroke-dasharray:none"
             id="path180" /><path
             d="m 2844.82,1253.2 504.94,403.95"
             style="fill:none;stroke:#000000;stroke-opacity:1;stroke-width:3.78575;stroke-linecap:butt;stroke-linejoin:miter;stroke-miterlimit:10;stroke-dasharray:none"
             id="path182" /><g
             id="g184"
             transform="scale(10,10)"><text
               transform="matrix(1,0,0,-1,355.956,162.074)"
               id="text186"><tspan
                 style="fill:#000000;fill-opacity:1;fill-rule:nonzero;stroke:none;font-family:Nimbus Roman No9 L;font-variant:normal;font-size:11.3574;writing-mode:lr;-inkscape-font-specification:NimbusRomNo9L-Regu"
                 x="0 6.14450105 11.18718665 16.86588665 21.28391525 26.96261525"
                 y="0"
                 sodipodi:role="line"
                 id="tspan188">Tensor</tspan></text>
</g><path
             d="m 3349.75,1657.15 162.4,0"
             style="fill:none;stroke:#000000;stroke-opacity:1;stroke-width:3.78575;stroke-linecap:butt;stroke-linejoin:miter;stroke-miterlimit:10;stroke-dasharray:none"
             id="path190" /><path
             d="m 3462.71,1679.34 52.28,-22.19 -52.28,-22.19"
             style="fill:#000000;fill-opacity:1;fill-rule:nonzero;stroke:none"
             id="path192" /><path
             d="m 3462.71,1679.34 52.28,-22.19 -52.28,-22.19 0,44.38 z"
             style="fill:none;stroke:#000000;stroke-opacity:1;stroke-width:3.78575;stroke-linecap:butt;stroke-linejoin:miter;stroke-miterlimit:10;stroke-dasharray:none"
             id="path194" /><path
             d="m 1532.18,817.645 -0.16,-170.352"
             style="fill:none;stroke:#000000;stroke-opacity:1;stroke-width:3.78575;stroke-linecap:butt;stroke-linejoin:miter;stroke-miterlimit:10;stroke-dasharray:none"
             id="path196" /><g
             id="g198"
             transform="scale(10,10)"><text
               transform="matrix(1,0,0,-1,30.6824,15.6566)"
               id="text200"><tspan
                 style="fill:#000000;fill-opacity:1;fill-rule:nonzero;stroke:none;font-family:Nimbus Roman No9 L;font-variant:normal;font-size:11.3574;writing-mode:lr;-inkscape-font-specification:NimbusRomNo9L-Regu"
                 x="0 6.9393714 12.6180714 17.660757 22.7034426 28.70028609 34.37898609 39.42167169 44.46435729 50.14305729 58.97911449 64.65781449 70.33651449 74.75454309 77.91190029 81.06925749 84.22661469 89.90531469"
                 y="0"
                 sodipodi:role="line"
                 id="tspan202">Exactdecomposition</tspan></text>
</g><path
             d="M 1532.04,647.309 936.895,277.367"
             style="fill:none;stroke:#000000;stroke-opacity:1;stroke-width:3.78575;stroke-linecap:butt;stroke-linejoin:miter;stroke-miterlimit:10;stroke-dasharray:none"
             id="path204" /><path
             d="m 990.633,284.625 -56.149,-8.758 32.704,46.473"
             style="fill:#000000;fill-opacity:1;fill-rule:nonzero;stroke:none"
             id="path206" /><path
             d="m 990.633,284.625 -56.149,-8.758 32.704,46.473 23.445,-37.715 z"
             style="fill:none;stroke:#000000;stroke-opacity:1;stroke-width:3.78844;stroke-linecap:butt;stroke-linejoin:miter;stroke-miterlimit:10;stroke-dasharray:none"
             id="path208" /><g
             id="g210"
             transform="scale(10,10)"><text
               transform="matrix(1,0,0,-1,163.103,15.6566)"
               id="text212"><tspan
                 style="fill:#000000;fill-opacity:1;fill-rule:nonzero;stroke:none;font-family:Nimbus Roman No9 L;font-variant:normal;font-size:11.3574;writing-mode:lr;-inkscape-font-specification:NimbusRomNo9L-Regu"
                 x="0 8.2000428 13.8787428 19.5574428 23.339457 29.018157 34.696857 37.8542142 46.6902714 51.732957 54.8903142 62.77244066 68.45114066 73.49382626 78.53651186 84.21521186 93.05126906 98.72996906 104.40866906 108.82669766 111.98405486 115.14141206 118.29876926 123.97746926"
                 y="0"
                 sodipodi:role="line"
                 id="tspan214">Approximatedecomposition</tspan></text>
</g><path
             d="M 1532,647.309 2127.15,277.367"
             style="fill:none;stroke:#000000;stroke-opacity:1;stroke-width:3.78575;stroke-linecap:butt;stroke-linejoin:miter;stroke-miterlimit:10;stroke-dasharray:none"
             id="path216" /><path
             d="m 2096.86,322.34 32.7,-46.473 -56.15,8.758"
             style="fill:#000000;fill-opacity:1;fill-rule:nonzero;stroke:none"
             id="path218" /><path
             d="m 2096.86,322.34 32.7,-46.473 -56.15,8.758 23.45,37.715 z"
             style="fill:none;stroke:#000000;stroke-opacity:1;stroke-width:3.78844;stroke-linecap:butt;stroke-linejoin:miter;stroke-miterlimit:10;stroke-dasharray:none"
             id="path220" /><path
             d="m 2863.64,2489.25 -2649.206,0 c -41.817,0 -75.719,-33.9 -75.719,-75.72 l 0,-321.17 c 0,-41.82 33.902,-75.72 75.719,-75.72 l 2649.206,0 c 41.82,0 75.72,33.9 75.72,75.72 l 0,321.17 c 0,41.82 -33.9,75.72 -75.72,75.72 z"
             style="fill:none;stroke:#000000;stroke-opacity:1;stroke-width:3.78575;stroke-linecap:butt;stroke-linejoin:miter;stroke-miterlimit:10;stroke-dasharray:28.3939,28.3939;stroke-dashoffset:0"
             id="path222" /><path
             d="m 2941.81,357.766 -2649.208,0 c -41.817,0 -75.715,-33.899 -75.715,-75.715 l 0,-198.6447 c 0,-41.8204 33.898,-75.7188 75.715,-75.7188 l 2649.208,0 c 41.82,0 75.72,33.8984 75.72,75.7188 l 0,198.6447 c 0,41.816 -33.9,75.715 -75.72,75.715 z"
             style="fill:none;stroke:#000000;stroke-opacity:1;stroke-width:3.78575;stroke-linecap:butt;stroke-linejoin:miter;stroke-miterlimit:10;stroke-dasharray:28.3939,28.3939;stroke-dashoffset:0"
             id="path224" /><path
             d="m 4341.2,1821.32 -898.81,0 c -41.82,0 -75.72,-33.9 -75.72,-75.71 l 0,-986.333 c 0,-41.816 33.9,-75.714 75.72,-75.714 l 898.81,0 c 41.81,0 75.71,33.898 75.71,75.714 l 0,986.333 c 0,41.81 -33.9,75.71 -75.71,75.71 z"
             style="fill:none;stroke:#000000;stroke-opacity:1;stroke-width:3.78575;stroke-linecap:butt;stroke-linejoin:miter;stroke-miterlimit:10;stroke-dasharray:28.3939,28.3939;stroke-dashoffset:0"
             id="path226" /><g
             id="g228"
             transform="scale(10,10)"><text
               transform="matrix(1,0,0,-1,24.7926,259.771)"
               id="text230"><tspan
                 style="fill:#000000;fill-opacity:1;fill-rule:nonzero;stroke:none;font-family:Nimbus Roman No9 L;font-variant:normal;font-size:11.3574;writing-mode:lr;-inkscape-font-specification:NimbusRomNo9L-MediItal"
                 x="0 7.5753858 13.2540858 18.9327858 22.090143 25.2475002 30.2901858 35.9688858 39.126243 42.2836002 47.9623002 54.2770146"
                 y="0"
                 sodipodi:role="line"
                 id="tspan232">Applications</tspan><tspan
                 style="fill:#000000;fill-opacity:1;fill-rule:nonzero;stroke:none;font-family:Nimbus Roman No9 L;font-variant:normal;font-size:11.3574;writing-mode:lr;-inkscape-font-specification:NimbusRomNo9L-MediItal"
                 x="10.1336 18.3336428 24.0123428 29.6910428 32.8484"
                 y="214.234"
                 sodipodi:role="line"
                 id="tspan234">Goals</tspan><tspan
                 style="fill:#000000;fill-opacity:1;fill-rule:nonzero;stroke:none;font-family:Nimbus Roman No9 L;font-variant:normal;font-size:11.3574;writing-mode:lr;-inkscape-font-specification:NimbusRomNo9L-MediItal"
                 x="323.2196 330.7949858 336.4736858 342.1523858 346.5704144 352.2491144 357.9278144 362.85695065 369.17166505 374.21435065"
                 y="66.794"
                 sodipodi:role="line"
                 id="tspan236">Approaches</tspan></text>
</g></g></g></g></g></svg>